<?xml version="1.0" standalone="no"?>
<!DOCTYPE svg PUBLIC "-//W3C//DTD SVG 1.1//EN" "http://www.w3.org/Graphics/SVG/1.1/DTD/svg11.dtd"><svg class="icon"
    width="200px" height="200.00px" viewBox="0 0 1024 1024" version="1.1" xmlns="http://www.w3.org/2000/svg">
    <path 
        d="M85.281047 541.393455c60.299636 55.342545 185.181091 95.418182 333.893818 102.656a320.814545 320.814545 0 0 1 469.620364-151.412364c5.911273-17.012364 4.421818-4.072727 4.421818-241.803636a76.8 76.8 0 0 0-3.048727-21.434182c23.482182 102.935273-173.451636 189.696-420.235636 189.696-233.122909 0-422.167273-77.428364-422.167273-173.172364-1.745455 7.610182-1.140364-15.266909-1.140364 220.928a102.4 102.4 0 0 0 38.656 74.542546z m53.713455-133.445819a47.592727 47.592727 0 1 1-40.005818 46.964364 43.845818 43.845818 0 0 1 40.005818-46.964364z" />
    <path 
        d="M396.786502 714.914909c-197.957818-13.288727-349.090909-84.689455-349.090909-170.961454-1.722182 7.633455-1.117091-15.243636-1.117091 220.951272a103.005091 103.005091 0 0 0 38.050909 74.472728c63.837091 59.578182 201.634909 101.329455 362.891636 103.889454a312.226909 312.226909 0 0 1-50.734545-228.352z m-259.211637 85.015273a47.732364 47.732364 0 1 1 39.284364-46.964364 43.636364 43.636364 0 0 1-39.284364 46.964364z" />
    <path 
        d="M47.765411 173.218909a422.167273 173.195636 0 1 0 844.334545 0 422.167273 173.195636 0 1 0-844.334545 0Z" />
    <!-- <path d="M 720 770 v192 a192 192 0 100-384 192 192 0 000 384zm-32-288v192a32 32 0 1164 0v96a32 32 0 11-64 0v-96zm32 224v192 a32 32 0 110-64 32 32 0 010 64z" transform="scale(1.3)" transform-origin="720 770"></path> -->
    <!-- <path d="M 720 770 m 135.776 90.56 l-45.248 45.184-90.496-90.496-90.496 90.496-45.312-45.248 90.56-90.496-90.56-90.496 45.312-45.248 90.496 90.496 90.496-90.496 45.248 45.248-90.496 90.496 90.496 90.496z" transform="scale(1.5)" transform-origin="720 770"/> -->
    <g transform="matrix(1 0 0 1 470 510)">
    <!-- <path d="M 16.28 19.945 L 19.957 16.32 C 22.06 14.166 25.578 14.166 27.681 16.32 L 50.007 38.595 L 72.333 16.32 C 74.436 14.166 77.954 14.166 80.054 16.32 L 83.68 19.945 C 85.834 22.046 85.834 25.566 83.68 27.668 L 61.405 49.993 L 83.68 72.32 C 85.834 74.422 85.834 77.939 83.68 80.043 L 80.054 83.721 C 77.954 85.82 74.436 85.82 72.333 83.721 L 50.007 61.393 L 27.681 83.721 C 25.578 85.82 22.06 85.82 19.957 83.721 L 16.28 80.043 C 14.18 77.939 14.18 74.422 16.28 72.32 L 38.606 49.993 L 16.28 27.667 C 14.18 25.566 14.18 22.046 16.28 19.945 z" transform="scale(5)"/> -->
    <path d="M 14.148 44.105 L 18.091 40.162 C 20.01 38.242 23.176 38.242 25.096 40.162 L 42.164 57.231 L 74.904 24.441 C 76.823 22.522 79.989 22.522 81.909 24.441 L 85.851 28.383 C 87.771 30.303 87.771 33.415 85.851 35.335 L 45.641 75.545 L 45.537 75.649 L 45.433 75.753 L 45.329 75.805 L 45.277 75.90 L 45.173 75.961 L 45.069 76.065 L 44.965 76.117 L 44.861 76.169 L 44.757 76.274 L 44.653 76.324 L 44.549 76.378 L 44.445 76.43 L 44.341 76.482 L 44.237 76.534 L 44.08 76.586 L 43.976 76.638 L 43.872 76.69 L 43.768 76.742 L 43.664 76.742 L 43.56 76.794 L 43.405 76.847 L 43.301 76.847 L 43.197 76.899 L 42.938 76.899 L 42.834 76.951 L 42.626 76.951 L 42.471 77.003 L 41.795 77.003 L 41.64 76.951 L 41.432 76.951 L 41.328 76.899 L 41.069 76.899 L 40.965 76.847 L 40.861 76.847 L 40.706 76.794 L 40.602 76.742 L 40.498 76.742 L 40.394 76.69 L 40.29 76.638 L 40.185 76.586 L 40.081 76.534 L 40.029 76.534 C 39.563 76.325 39.096 75.962 38.63 75.548 L 14.14 51.059 C 12.229 49.137 12.229 46.025 14.148 44.105 z" transform="scale(5)"/>
    </g>
</svg>