<?xml version="1.0" standalone="no"?><!DOCTYPE svg PUBLIC "-//W3C//DTD SVG 1.1//EN" "http://www.w3.org/Graphics/SVG/1.1/DTD/svg11.dtd"><svg t="1734111191484" class="icon" viewBox="0 0 1029 1024" version="1.1" xmlns="http://www.w3.org/2000/svg" p-id="46231" xmlns:xlink="http://www.w3.org/1999/xlink" width="200.9765625" height="200"><path d="M950.391268 314.753237q21.460448 17.372744 37.811265 35.25645t16.350817 35.25645q0 19.416596-14.817928 31.679709t-36.278376 27.592005q-32.701635 24.526226-68.980011 51.607268t-68.980011 51.096305-57.738824 41.89897-35.25645 24.015263q-33.723561 20.438522-52.118231 14.817928t-23.5043-21.971411l0-118.543427-4.087704 0q-77.666383 0-135.91617 16.861781t-102.192609 51.096305-76.644457 84.819866-59.271713 117.010538q-3.065778-2.043852-6.131557-11.241187-2.043852-8.175409-3.576741-23.5043t-1.532889-42.920896q0-85.841792 26.059115-160.442397t74.600605-130.295577 117.521501-87.374681 154.821803-30.657783q5.10963 0 8.686372 0.510963t8.686372 0.510963l-1.021926-107.30224q2.043852-28.613931 23.5043-41.388007t54.162083 10.730224q10.219261 8.175409 37.300302 29.635857t60.804603 48.030526 68.469048 54.673046 59.271713 48.541489zM779.72961 698.997448q33.723561 0 47.519563 18.905633t13.796002 54.673046l0 133.872318q0 51.096305-29.635857 84.819866t-78.688309 32.701635l-612.13373-4.087704q-22.482374 0-43.942822-9.197335t-38.322228-26.059115-27.592005-40.366081-10.730224-53.140157l0-591.695208q0-50.074379 30.14682-83.79794t84.308903-32.701635l207.450997 2.043852q11.241187 0 23.5043 2.554815t21.971411 9.708298 16.350817 18.905633 6.64252 30.14682q0 17.372744-7.153483 29.124894t-18.905633 19.416596-25.548152 11.241187-27.081041 3.576741l-98.104905-1.021926q-39.855118 0-62.337492 25.037189t-22.482374 61.826529l0 404.682733q0 21.460448 7.664446 38.833192t20.438522 29.124894 28.613931 18.39467 32.190672 6.64252l416.945846 4.087704q35.767413 1.021926 56.716898-23.5043t20.949485-62.337492l0-43.942822q0-31.679709 18.905633-50.074379t48.541489-18.39467z" p-id="46232"></path></svg>