<?xml version="1.0" standalone="no"?>
<!DOCTYPE svg PUBLIC "-//W3C//DTD SVG 1.1//EN" "http://www.w3.org/Graphics/SVG/1.1/DTD/svg11.dtd"><svg t="1734114270846"
    class="icon" viewBox="0 0 1024 1024" version="1.1" xmlns="http://www.w3.org/2000/svg" p-id="62392"
    xmlns:xlink="http://www.w3.org/1999/xlink" width="200" height="200">
    <path
        d="M575.53 219.64H448.47c-16.19 0-29.55 12.36-31.47 28.36l-0.25 4.08v32.46h190.5v-32.46c0-16.56-12.12-30.23-27.78-32.23z m0 227.39c17.54 0 31.76 14.54 31.76 32.48v194.91c0 17.94-14.22 32.48-31.76 32.48s-31.76-14.54-31.76-32.48v-194.9C543.76 461.57 558 447 575.53 447z m-127.05 0c16.19 0 29.56 12.39 31.52 28.41l0.25 4.07v194.91c0 17.94-14.22 32.48-31.76 32.48-16.19 0-29.56-12.39-31.52-28.41l-0.25-4.07v-194.9c-0.01-17.95 14.21-32.52 31.75-32.52z m254.06-97.46H321.38v422.31c0 16.56 12.12 30.23 27.78 32.23l4 0.25h317.65c16.19 0 29.56-12.39 31.52-28.41l0.25-4.07z m-127-194.91c50.52 0 91.86 40.21 95.09 91l0.2 6.41v32.46h127.09c17.54 0 31.76 14.54 31.76 32.48 0 16.56-12.12 30.23-27.78 32.23l-4 0.25h-31.8V771.8c0 51.67-39.32 93.95-89 97.25l-6.27 0.21H353.19c-50.52 0-91.86-40.21-95.09-91l-0.2-6.41V349.54h-31.77c-16.19 0-29.56-12.39-31.52-28.41l-0.25-4.07c0-16.56 12.12-30.23 27.78-32.23l4-0.25h127v-32.46c0-51.67 39.32-93.95 89-97.25l6.27-0.21z"
        p-id="62393"></path>
</svg>